Coordinates
version=1
nRows=9
nColumns=36
inDegrees=yes

Units are S.I. units (second, meters, Newtons, ...)
If the header above contains a line with 'inDegrees', this indicates whether rotational values are in degrees (yes) or radians (no).

endheader
time	pelvis_tilt	pelvis_list	pelvis_rotation	pelvis_tx	pelvis_ty	pelvis_tz	hip_flexion_r	hip_adduction_r	hip_rotation_r	knee_angle_r	knee_angle_r_beta	ankle_angle_r	subtalar_angle_r	mtp_angle_r	hip_flexion_l	hip_adduction_l	hip_rotation_l	knee_angle_l	knee_angle_l_beta	ankle_angle_l	subtalar_angle_l	mtp_angle_l	lumbar_extension	lumbar_bending	lumbar_rotation	arm_flex_r	arm_add_r	arm_rot_r	elbow_flex_r	pro_sup_r	arm_flex_l	arm_add_l	arm_rot_l	elbow_flex_l	pro_sup_l
      4.42083330	     -1.82312687	     -1.49353626	      2.24276705	      0.40793076	      0.92454616	     -0.03996095	      0.49094737	     -2.90493885	      0.45806420	      1.83855971	      0.03208892	      1.49472143	    -16.95260416	     -7.49999987	      2.70192293	     -8.37650450	     -3.81884071	      1.99935925	      0.03489540	      1.43575897	     -5.14871793	     -7.49999987	     -8.76256482	      1.19713209	      2.35254603	     -5.17549624	    -13.65416841	     31.29253096	     11.59114883	     51.74930021	    -10.67129147	    -10.58423271	    -46.01353618	     25.47054913	     70.91347940
      4.42500000	     -1.75930922	     -1.47775063	      2.21892247	      0.40775149	      0.92144334	     -0.03977818	      0.42739494	     -2.92938422	      0.48013532	      1.80441747	      0.03149303	      1.37626365	    -16.97707659	     -7.49999987	      2.56195629	     -8.33455741	     -3.93152342	      1.86786473	      0.03260039	      1.47486450	     -4.97572618	     -7.49999987	     -8.79532021	      1.16772179	      2.57718799	     -5.53392597	    -13.84372529	     30.75095962	     11.50484514	     50.79065927	    -10.55276137	    -10.33193886	    -48.19493786	     25.82830646	     75.28354809
      4.42916670	     -1.74685154	     -1.48220680	      2.25280007	      0.40786961	      0.92135014	     -0.03999152	      0.42902523	     -2.92797334	      0.43559628	      1.80444697	      0.03149354	      1.33302178	    -17.01377695	     -7.49999987	      2.51183017	     -8.30595851	     -3.87265606	      1.73598274	      0.03029861	      1.45873818	     -4.95441965	     -7.49999987	     -8.79246276	      1.21269303	      2.54431038	     -5.75471988	    -13.97738965	     29.37959788	     11.11387330	     51.32164150	    -10.64985133	    -10.16309389	    -48.75619466	     26.18921142	     73.30246724
      4.43333330	     -1.59177192	     -1.50089730	      2.30680973	      0.40758034	      0.92140523	     -0.03978838	      0.28020053	     -2.90766885	      0.37352161	      1.81824819	      0.03173442	      1.42312828	    -16.99097898	     -7.49999987	      2.30548667	     -8.29849477	     -3.81071960	      1.62141080	      0.02829896	      1.53679160	     -4.93928847	     -7.49999987	     -8.99756948	      1.22828568	      2.62552081	     -6.07493583	    -14.22352400	     28.24889327	     11.32390773	     52.30149955	    -10.64201379	     -9.99406550	    -49.18451402	     26.64068752	     71.10137975
      4.43750000	     -1.68222839	     -1.54666713	      2.33445836	      0.40780173	      0.92114746	     -0.03992115	      0.41730102	     -2.83850459	      0.39136569	      1.90515878	      0.03325129	      1.29252476	    -17.23756881	     -7.49999987	      2.40444216	     -8.33267131	     -3.82819458	      1.58398072	      0.02764568	      1.69612119	     -4.65494994	     -7.49999987	     -8.78726539	      1.25475380	      2.60807762	     -6.13547589	    -14.14496390	     26.78726229	     10.64309470	     52.53217839	    -10.76954772	     -9.75085608	    -49.82120357	     27.12309161	     70.26040907
      4.44166670	     -1.62604103	     -1.61082840	      2.39540275	      0.40753044	      0.92122661	     -0.03965299	      0.37351412	     -2.74099163	      0.43359323	      1.98597879	      0.03466187	      1.30899719	    -17.31833884	     -7.49999987	      2.34182413	     -8.39874485	     -3.82460752	      1.53424534	      0.02677763	      1.86454205	     -4.49746830	     -7.49999987	     -8.83985848	      1.27810465	      2.75005547	     -6.32027206	    -14.20888145	     25.93919295	     10.59531723	     52.77424733	    -10.58258803	     -9.43594737	    -51.76377965	     27.54697748	     73.45528307
      4.44583330	     -1.65865049	     -1.65251761	      2.49103786	      0.40776282	      0.92105894	     -0.03986126	      0.37711352	     -2.66643280	      0.37736139	      1.99750978	      0.03486312	      1.40986668	    -17.23667702	     -7.49999987	      2.39923488	     -8.43778897	     -3.68402079	      1.51048522	      0.02636294	      1.85464049	     -4.49211801	     -7.49999987	     -8.73928881	      1.33063728	      2.73860666	     -6.49083217	    -14.19633608	     24.18199693	     10.49575224	     53.12927328	    -10.65842057	     -9.23058025	    -52.12184545	     28.09945969	     71.33050121
      4.45000000	     -1.68035990	     -1.71276408	      2.51893574	      0.40759344	      0.91787180	     -0.03954899	      0.42464242	     -2.59089707	      0.38133228	      2.08628238	      0.03641250	      1.27556693	    -17.73233885	     -7.49999987	      2.43426073	     -8.50050189	     -3.71156918	      1.50569065	      0.02627926	      2.03409046	     -4.35343204	     -7.49999987	     -8.67030915	      1.45833547	      2.69533911	     -6.66770429	    -14.26119280	     22.04917317	     10.38209088	     55.50250466	    -10.87762376	     -9.09124497	    -51.57192782	     28.54921766	     67.03746789
      4.45416670	     -1.75384595	     -1.78867051	      2.63477554	      0.40785191	      0.91811389	     -0.03978323	      0.51032690	     -2.49398512	      0.17612829	      2.16598286	      0.03780353	      1.43510752	    -17.65769712	     -7.49999987	      2.56182621	     -8.58106872	     -3.55686071	      1.53131766	      0.02672654	      2.11852079	     -4.35050346	     -7.49999987	     -8.49500748	      1.56783684	      2.72798198	     -6.98115083	    -14.31152512	     20.52247874	     10.31400664	     55.89561572	    -10.97413927	     -8.90669163	    -51.77170823	     29.03516907	     66.12587664
